<?xml version="1.0" encoding="UTF-8"?>
<svg xmlns="http://www.w3.org/2000/svg" xmlns:xlink="http://www.w3.org/1999/xlink" viewBox="0 0 50 50" width="50px" height="50px">
<g id="surface20222566">
<path style=" stroke:none;fill-rule:nonzero;fill:rgb(80.000001%,80.000001%,80.000001%);fill-opacity:1;" d="M 21 3 C 11.65625 3 4 10.65625 4 20 C 4 29.34375 11.65625 37 21 37 C 24.703125 37 28.128906 35.785156 30.925781 33.753906 L 44.085938 46.914062 L 46.914062 44.085938 L 33.875 31.046875 C 36.4375 28.066406 38 24.210938 38 20 C 38 10.65625 30.34375 3 21 3 Z M 21 5 C 29.253906 5 36 11.746094 36 20 C 36 28.253906 29.253906 35 21 35 C 12.746094 35 6 28.253906 6 20 C 6 11.746094 12.746094 5 21 5 Z M 21 5 "/>
</g>
</svg>
